# xmcd CD database file
#
# Track frame offsets:
#	187
#	18825
#	40310
#
# Disc length: 783 seconds
#
# Revision: 1
# Processed by: cddbd v1.5.1PL0 Copyright (c) Steve Scherf et al.
# Submitted via: CDex 1.51
#
DISCID=19030d03
DTITLE=Valentine D.C. - Monochrome Sexuality
DYEAR=1994
DGENRE=ロック (日本)
TTITLE0=Monochrome Sexuality
TTITLE1=the PARODY
TTITLE2=Monochrome Sexuality(TV MIX)
EXTD=YEAR: 1994/09/21
EXTT0=
EXTT1=
EXTT2=
PLAYORDER=
